<svg width="145" height="105" viewBox="0 0 145 105" fill="none" xmlns="http://www.w3.org/2000/svg">
<g id="Group 34415">
<path id="Vector" d="M38.81 78.3989C60.2442 78.3989 77.6201 61.0081 77.6201 39.5555C77.6201 18.1029 60.2442 0.712158 38.81 0.712158C17.3758 0.712158 0 18.1029 0 39.5555C0 61.0081 17.3758 78.3989 38.81 78.3989Z" fill="#E6E6E6"/>
<g id="Group">
<path id="Vector_2" fill-rule="evenodd" clip-rule="evenodd" d="M106.577 105H87.3766C69.2758 105 60.223 105 54.6022 99.3744C48.9766 93.7536 48.9766 84.7008 48.9766 66.6V47.4C48.9766 29.2992 48.9766 20.2464 54.6022 14.6256C60.223 9 69.3238 9 87.5206 9C90.4294 9 92.7574 9 94.7206 9.0816C94.6582 9.4656 94.6246 9.8544 94.6246 10.2528L94.5766 23.856C94.5766 29.1216 94.5766 33.7776 95.0806 37.5264C95.6278 41.592 96.8806 45.6576 100.202 48.9792C103.514 52.2912 107.585 53.5488 111.65 54.096C115.399 54.6 120.055 54.6 125.321 54.6H144.77C144.977 57.1632 144.977 60.312 144.977 64.5024V66.6C144.977 84.7008 144.977 93.7536 139.351 99.3744C133.73 105 124.677 105 106.577 105Z" fill="#179CFD"/>
<path id="Vector_3" d="M132.267 35.9621L113.259 18.8597C107.849 13.9877 105.147 11.5493 101.821 10.2773L101.777 23.4005C101.777 34.7141 101.777 40.3733 105.291 43.8869C108.805 47.4005 114.464 47.4005 125.777 47.4005H142.961C141.224 44.0213 138.104 41.2181 132.267 35.9621Z" fill="#179CFD"/>
</g>
</g>
</svg>
