<svg width="188" height="111" viewBox="0 0 188 111" fill="none" xmlns="http://www.w3.org/2000/svg">
<path id="Vector" d="M187.384 105.146L141.827 26.1715C141.543 25.6778 141.133 25.268 140.64 24.983C140.147 24.698 139.587 24.5479 139.018 24.5479C138.448 24.5479 137.889 24.698 137.396 24.983C136.902 25.268 136.493 25.6778 136.208 26.1715L108.406 74.3674L66.9587 2.51683C66.5937 1.88396 66.0686 1.35843 65.4362 0.993045C64.8039 0.62766 64.0866 0.435303 63.3565 0.435303C62.6263 0.435303 61.909 0.62766 61.2767 0.993045C60.6443 1.35843 60.1192 1.88396 59.7541 2.51683L1.34437 103.772C0.979299 104.405 0.787106 105.123 0.787109 105.854C0.787112 106.585 0.979321 107.303 1.3444 107.935C1.70948 108.568 2.23457 109.094 2.8669 109.459C3.49923 109.825 4.21654 110.017 4.94669 110.017H184.575C185.144 110.017 185.704 109.867 186.197 109.582C186.69 109.297 187.1 108.887 187.384 108.394C187.669 107.9 187.819 107.34 187.819 106.77C187.819 106.2 187.669 105.64 187.384 105.146Z" fill="#179CFD"/>
</svg>
