<svg width="26" height="32" viewBox="0 0 26 32" fill="none" xmlns="http://www.w3.org/2000/svg">
<path id="Vector" fill-rule="evenodd" clip-rule="evenodd" d="M12.9444 31.8338C13.6078 31.8338 14.244 31.5972 14.7131 31.1761C15.1822 30.755 15.4458 30.1838 15.4458 29.5882V8.05972L21.1824 13.2098C21.4114 13.4304 21.6875 13.6074 21.9944 13.7301C22.3012 13.8529 22.6325 13.9189 22.9683 13.9242C23.3042 13.9295 23.6378 13.874 23.9493 13.7611C24.2608 13.6481 24.5437 13.48 24.7812 13.2668C25.0188 13.0535 25.206 12.7995 25.3318 12.5199C25.4576 12.2403 25.5194 11.9408 25.5135 11.6392C25.5076 11.3377 25.4341 11.0403 25.2973 10.7649C25.1606 10.4894 24.9635 10.2415 24.7177 10.0359L14.712 1.05324C14.243 0.632697 13.6072 0.396484 12.9444 0.396484C12.2815 0.396484 11.6457 0.632697 11.1767 1.05324L1.17097 10.0359C0.729116 10.4616 0.488566 11.0247 0.5 11.6064C0.511434 12.1882 0.773959 12.7433 1.23226 13.1548C1.69057 13.5662 2.30887 13.8019 2.95691 13.8121C3.60495 13.8224 4.23213 13.6065 4.70632 13.2098L10.4429 8.05972V29.5882C10.4429 30.8278 11.5636 31.8338 12.9444 31.8338Z" fill="white"/>
</svg>
