<svg width="82" height="135" viewBox="0 0 82 135" fill="none" xmlns="http://www.w3.org/2000/svg">
<g id="Group 34417">
<path id="Vector" d="M40.841 80.5817C35.7194 80.5758 30.8093 78.5387 27.1879 74.9173C23.5664 71.2958 21.5293 66.3857 21.5234 61.2642V19.3175C21.5234 14.1942 23.5586 9.28072 27.1814 5.65798C30.8041 2.03524 35.7176 0 40.841 0C45.9643 0 50.8777 2.03524 54.5005 5.65798C58.1232 9.28072 60.1585 14.1942 60.1585 19.3175V61.2642C60.1526 66.3857 58.1155 71.2958 54.494 74.9173C50.8725 78.5387 45.9625 80.5758 40.841 80.5817Z" fill="#179CFD"/>
<path id="Vector_2" d="M40.8428 96.5875C30.0144 96.5752 19.633 92.2682 11.9761 84.6114C4.31925 76.9545 0.0122475 66.5731 0 55.7447C0 54.8664 0.348878 54.0241 0.969919 53.4031C1.59096 52.782 2.43329 52.4331 3.31158 52.4331C4.18986 52.4331 5.03212 52.782 5.65317 53.4031C6.27421 54.0241 6.62315 54.8664 6.62315 55.7447C6.62315 64.8203 10.2284 73.5242 16.6458 79.9416C23.0632 86.359 31.7672 89.9643 40.8428 89.9643C49.9184 89.9643 58.6222 86.359 65.0397 79.9416C71.4571 73.5242 75.0624 64.8203 75.0624 55.7447C75.0624 54.8664 75.4113 54.0241 76.0323 53.4031C76.6534 52.782 77.4957 52.4331 78.374 52.4331C79.2523 52.4331 80.0945 52.782 80.7156 53.4031C81.3366 54.0241 81.6855 54.8664 81.6855 55.7447C81.6733 66.5731 77.3663 76.9545 69.7094 84.6114C62.0526 92.2682 51.6712 96.5752 40.8428 96.5875Z" fill="#179CFD"/>
<path id="Vector_3" d="M40.8428 134.119C39.9646 134.119 39.1223 133.77 38.5012 133.149C37.8802 132.528 37.5313 131.686 37.5312 130.807V94.3799C37.5312 93.5017 37.8801 92.6594 38.5012 92.0383C39.1222 91.4173 39.9645 91.0684 40.8428 91.0684C41.7211 91.0684 42.5634 91.4173 43.1844 92.0383C43.8055 92.6594 44.1544 93.5017 44.1544 94.3799V130.807C44.1544 131.686 43.8054 132.528 43.1844 133.149C42.5634 133.77 41.7211 134.119 40.8428 134.119Z" fill="#179CFD"/>
</g>
</svg>
