<svg width="532" height="698" viewBox="0 0 532 698" fill="none" xmlns="http://www.w3.org/2000/svg">
<path d="M251.145 -141.948C253.265 -140.102 263.726 -134.498 265.981 -133.179C267.83 -132.058 269.994 -132.124 272.024 -131.663C291.189 -126.718 310.353 -121.839 329.518 -116.894C349.765 -111.29 370.058 -105.752 390.35 -100.213C409.875 -94.6751 429.401 -89.1368 448.927 -83.6645C450.46 -83.2029 451.993 -82.8074 453.571 -82.3458C454.293 -82.3458 455.014 -82.148 455.736 -82.0821C479.139 -73.8406 503.174 -69.9506 526.308 -60.1268C526.172 -58.8082 525.992 -57.4236 525.812 -56.039C500.604 -61.7751 475.352 -67.5112 450.144 -73.2472C430.528 -77.5987 410.958 -81.9502 391.342 -86.3677C390.62 -86.4995 389.944 -87.0929 389.268 -87.4885C378.129 -89.7961 367.036 -92.1037 355.943 -94.5432C345.572 -96.8508 335.245 -99.2903 324.874 -101.664C311.075 -104.829 297.231 -108.059 283.432 -111.224C278.878 -112.279 274.323 -113.334 269.769 -114.323C255.023 -117.817 240.233 -121.312 225.487 -124.872C222.556 -125.531 219.67 -126.454 216.739 -127.245H203.887C203.661 -128.037 203.436 -128.828 203.211 -129.619M650.316 576.05C638.411 561.874 627.182 546.446 615.548 531.744C601.434 513.744 587.184 495.877 573.025 477.943C561.255 462.845 549.26 448.076 537.806 432.45C528.111 419.132 517.74 408.121 504.933 402.122C498.62 399.155 492.532 395.265 486.309 391.77C463.672 378.452 441.08 365.2 418.443 351.881C417.271 351.222 416.053 350.497 414.881 349.838C394.002 338.102 373.124 326.3 352.246 314.564C325.911 299.136 299.576 283.708 273.241 268.28C247.763 250.215 220.436 240.325 193.29 229.644C183.955 225.754 174.621 221.666 165.242 217.974C145.265 209.996 125.198 202.15 105.177 194.304C98.1871 191.337 91.2426 188.239 84.2531 185.469C59.4064 175.514 34.5597 165.69 9.66794 155.866C9.217 155.668 8.72095 155.404 8.27 155.141C3.44498 153.031 -1.28987 149.998 -6.2502 148.943C-12.6535 147.559 -19.5078 145.778 -25.6405 147.69C-46.6091 154.35 -67.4425 162.459 -88.2307 170.371C-90.2148 171.162 -92.4695 173.931 -93.3714 176.635C-95.5359 183.162 -97.2495 190.151 -98.6474 197.205C-99.2787 200.304 -99.7747 204.656 -95.4006 203.535C-81.5568 200.04 -67.7581 196.348 -53.8692 193.645C-34.1182 189.821 -14.5925 179.47 5.74477 187.909C22.9255 195.491 40.0611 203.337 57.287 210.721C70.9504 216.589 84.704 221.864 98.4125 227.402C109.731 232.083 121.14 236.369 132.323 241.643C150.315 250.017 168.173 259.115 186.075 267.884C194.552 272.895 202.985 278.038 211.463 282.851C231.259 294.125 251.1 305.202 270.896 316.41C294.931 330.256 318.921 344.167 342.956 358.079C349.675 362.101 356.349 366.189 363.068 370.079C380.068 379.705 397.069 389.265 414.024 398.891C437.292 412.341 460.516 425.857 483.784 439.307C484.776 440.032 485.723 440.889 486.76 441.483C512.915 455.592 539.25 469.174 559.406 499.371C593.272 539.721 627.182 580.006 661.724 621.081C663.122 601.697 659.921 587.522 650.316 576.05ZM658.658 642.311C649.369 633.147 640.575 622.795 631.511 612.972C613.925 593.917 596.293 574.797 578.661 555.743C571.852 548.688 564.728 542.293 558.369 534.513C540.873 513.217 519.498 504.052 498.845 492.58C474.72 478.998 450.595 465.416 426.47 451.9C401.262 437.593 376.1 423.286 350.938 408.978C343.542 404.561 336.147 400.078 328.707 395.858C310.94 385.77 293.173 375.815 275.406 365.859C255.97 354.716 236.58 343.64 217.145 332.563C191.486 317.861 165.783 303.158 140.124 288.455C112.301 273.884 84.4785 259.247 56.7008 244.61C40.2866 237.49 23.9626 230.237 7.54851 223.314C-4.26607 218.303 -16.0806 220.941 -27.8501 224.303C-30.2852 224.303 -32.7203 223.842 -35.1102 224.105C-53.5536 226.215 -71.9519 229.05 -90.3952 230.435C-105.592 231.622 -105.637 230.896 -110.282 252.39C-110.733 254.434 -111.364 256.61 -111.274 258.654C-111.183 260.104 -109.966 261.357 -109.244 262.676C-108.748 262.61 -108.207 262.544 -107.711 262.544C-106.674 262.478 -105.637 262.412 -104.6 262.346H-76.2358C-75.1535 262.412 -74.1164 262.412 -73.0341 262.412H-71.7264C-70.6441 262.478 -69.607 262.478 -68.5698 262.478C-68.0738 262.478 -67.6228 262.544 -67.1719 262.544C-55.9436 262.807 -44.7152 263.071 -33.4868 263.335C-26.0013 263.335 -18.5608 263.862 -11.0752 263.533C2.54309 262.939 15.6654 265.84 28.2917 273.488C35.3263 277.708 42.4962 281.4 49.621 285.356C61.4356 292.147 73.2051 299.07 85.0648 305.795C101.434 315.091 117.893 324.256 134.307 333.486C158.432 347.068 182.512 360.716 206.593 374.298C226.073 385.375 245.599 396.451 265.079 407.528C291.414 422.494 317.704 437.395 343.993 452.362C369.607 466.801 395.22 481.306 420.833 495.745C427.056 499.437 433.279 503.327 439.547 506.821C457.72 516.975 475.938 527.062 494.111 537.15C504.663 543.282 515.35 548.886 525.676 555.677C540.061 565.105 554.221 575.391 568.47 585.28C589.709 606.378 610.994 627.411 632.233 648.509C641.838 658.069 651.398 667.761 661.048 677.321C665.602 681.87 667.361 680.684 667.857 672.772C668.624 660.179 666.414 649.893 658.658 642.311ZM629.617 745.956C615.909 736.99 602.336 727.693 588.492 719.32C577.128 712.463 565.404 706.793 553.86 700.529C552.552 699.474 551.335 698.156 549.982 697.43C527.255 684.837 504.482 672.376 481.71 659.849C469.76 653.454 457.81 647.058 445.905 640.597C431.16 632.619 416.414 624.642 401.668 616.664C376.506 602.818 351.299 588.972 326.136 575.127C302.101 561.874 278.066 548.622 254.031 535.37C245.914 530.623 237.797 525.744 229.59 521.195C212.59 511.898 195.59 502.602 178.544 493.305C174.08 490.866 169.571 488.426 165.061 485.987C165.061 485.987 165.016 485.987 165.016 485.921C164.61 485.657 164.249 485.328 163.844 484.932C159.154 482.295 154.464 479.591 149.729 476.954C125.92 463.9 102.065 450.845 78.2556 437.791C62.3826 428.758 46.5997 419.396 30.6365 410.759C16.2065 402.979 1.64122 395.99 -12.8339 388.671C-14.0514 387.88 -15.1788 386.957 -16.4414 386.43C-50.9381 371.925 -85.48 357.486 -120.022 343.178C-121.735 342.519 -123.629 342.849 -125.929 342.651C-125.929 349.508 -125.568 355.837 -126.019 361.969C-126.47 367.837 -124.576 370.408 -121.33 372.254C-114.205 376.408 -107.17 380.957 -100 384.913C-71.4558 400.539 -42.9115 416.033 -14.322 431.527C-7.06189 435.747 0.153122 440.164 7.50342 444.12C29.4641 456.12 51.515 467.987 73.5208 479.855C102.426 495.745 131.286 511.568 160.191 527.458C160.597 527.788 161.048 528.183 161.499 528.513C161.859 528.645 162.265 528.777 162.671 528.974C168.894 532.601 175.072 536.359 181.34 539.787C204.383 552.314 227.471 564.775 250.514 577.237C256.556 580.797 262.599 584.423 268.687 587.786C287.446 598.005 306.205 608.027 324.964 618.18C339.574 626.422 354.185 634.795 368.84 642.839C378.22 648.047 387.689 652.794 397.114 657.673C420.833 670.794 444.507 683.914 468.182 697.035C474.089 700.397 479.906 703.892 485.858 707.122C504.347 717.21 522.88 727.1 541.369 737.121C541.82 736.132 542.271 735.143 542.767 734.22C543.082 735.605 543.353 736.99 543.669 738.374C544.796 739.099 545.878 739.825 546.961 740.55C569.553 753.077 592.145 765.604 614.782 777.867C616.315 778.724 619.381 778.263 620.238 776.68C624.702 768.043 628.761 758.879 633.09 749.517C631.692 748.066 630.745 746.747 629.617 745.956ZM651.804 695.914C640.711 686.222 629.708 676.266 618.615 666.574C609.957 658.992 601.163 651.674 592.46 644.157C582.99 635.982 573.927 626.356 563.916 619.829C547.862 609.279 531.223 600.774 514.809 591.412C514.313 591.082 513.817 590.753 513.321 590.357C512.915 590.225 512.554 590.093 512.148 589.896C493.299 579.28 474.495 568.534 455.6 558.05C446.672 553.106 437.698 548.688 428.725 544.007C419.571 538.601 410.507 533.062 401.308 527.92C384.578 518.689 367.803 509.656 351.028 500.558C326.181 486.58 301.38 472.669 276.533 458.691C255.249 446.823 234.01 434.956 212.725 423.088C204.924 418.473 197.168 413.726 189.322 409.308C171.87 399.55 154.329 389.99 136.832 380.298C110.858 365.661 84.9295 351.09 58.9555 336.453C47.9526 330.124 36.7693 324.52 26.037 317.333C9.57773 306.257 -7.91867 303.553 -25.5954 301.641C-38.6726 299.927 -51.7498 298.477 -64.7819 296.433C-79.6178 294.059 -94.3635 290.894 -109.199 288.521C-118.128 287.07 -118.308 287.532 -121.239 299.663C-123.765 310.3 -121.33 316.564 -113.934 318.454C-113.573 318.586 -113.213 318.784 -112.852 318.85C-86.7426 326.168 -60.6784 333.421 -34.6142 340.673C-16.1257 346.211 2.54311 350.167 19.9944 361.705C30.366 368.496 41.3238 373.375 52.011 379.111C57.8732 382.54 63.7354 386.166 69.6878 389.463C88.5821 399.946 107.521 410.297 126.416 420.78C153.111 435.615 179.807 450.516 206.502 465.35C219.534 472.866 232.476 480.449 245.554 487.767C255.745 493.503 266.071 498.844 276.308 504.448C298.945 517.041 321.537 529.634 344.129 542.227C370.012 556.798 395.896 571.369 421.78 585.94C426.65 588.709 431.52 591.544 436.391 594.247C458.667 606.576 480.898 618.774 503.129 631.037C503.986 631.696 504.753 632.422 505.609 632.883C531.764 647.981 557.963 663.014 584.163 678.046C601.344 691.365 618.524 704.815 635.75 717.935C644.544 724.66 644.589 724.462 650.631 713.452C651.443 711.935 652.209 710.287 653.156 709.034C657.485 703.562 656.088 699.606 651.804 695.914ZM441.306 955.751C437.518 954.235 433.73 952.719 430.032 950.807C408.162 939.466 386.336 928.06 364.466 916.72C341.964 904.984 319.417 893.248 296.915 881.512C272.88 869.315 248.845 857.117 224.81 844.92C197.393 830.613 169.931 816.306 142.514 801.932C140.936 801.339 139.358 800.812 137.87 799.954C116.134 788.548 94.3992 777.076 72.7091 765.604C51.6503 754.527 30.5914 743.517 9.57774 732.44C-1.33496 726.638 -12.3379 721.166 -23.0702 714.902C-31.9086 709.826 -40.4313 703.76 -49.0893 698.09C-50.4421 695.452 -51.5695 692.617 -53.1027 690.244C-78.0395 650.421 -103.067 610.664 -128.094 570.973C-129.131 569.325 -130.529 568.138 -132.919 565.435C-131.656 580.138 -135.399 593.39 -128.635 604.928C-104.87 645.542 -81.2412 686.354 -57.5669 727.034C-53.5987 732.242 -50.1716 739.495 -45.5269 742.264C-28.6167 752.286 -11.2556 760.791 5.92513 769.89C26.9839 780.834 48.0427 791.779 69.0565 802.658C93.1366 815.185 117.172 827.712 141.252 840.239C168.263 854.282 195.319 868.26 222.33 882.237C232.476 887.644 242.622 893.182 252.814 898.457C266.703 905.577 280.637 912.566 294.571 919.555C301.244 923.247 307.828 927.005 314.502 930.434C330.014 938.411 345.572 946.191 361.084 954.037C380.113 964.059 399.098 974.081 418.128 983.97C419.255 984.564 420.968 984.827 421.87 983.97C428.95 977.377 436.075 970.784 442.839 963.531C445.995 960.235 444.913 957.202 441.306 955.751ZM632.999 395.067C621.05 373.243 608.965 351.552 596.834 329.992C584.93 308.828 572.889 287.862 560.94 266.763C542.541 233.666 523.737 200.963 505.88 167.272C494.922 146.636 480.357 139.119 463.672 136.482C448.476 131.537 433.279 126.592 418.082 121.845C405.501 117.823 392.875 114.065 380.249 110.241C372.989 107.802 365.729 105.23 358.468 102.923C339.8 97.0548 321.131 91.3187 302.462 85.5167C301.29 85.187 300.072 84.8574 298.854 84.4618C277.886 77.7367 256.917 71.0776 235.949 64.3526L154.78 38.2436C125.92 29.0131 97.0146 19.8486 68.1546 10.6181C64.051 9.23354 59.9475 7.78304 55.844 6.39847C33.9284 -0.722183 11.9226 -7.24944 -9.90279 -15.0953C-24.0172 -20.1721 -35.8317 -11.7987 -48.007 -4.21657C-48.1423 -4.0847 -48.0972 -3.22758 -48.0972 -2.43642C-47.3306 -1.90895 -46.519 -1.1837 -45.6171 -0.85405C-28.6618 4.68423 -11.6614 10.2225 5.29382 15.7608C25.8115 22.4858 46.3292 29.2109 66.8469 35.87C74.4677 38.5073 82.0886 41.2105 89.7094 43.7159C110.633 50.5069 131.602 57.166 152.525 63.8911C158.162 65.9349 163.753 68.1107 169.39 69.8909C189.322 76.3522 209.208 82.7476 229.139 89.143C252.769 97.0548 276.353 104.967 299.982 112.812C309.857 116.241 319.643 119.801 329.518 122.966C344.174 127.713 358.829 132.196 373.485 136.812C385.254 140.899 397.069 145.251 408.883 149.141C426.74 155.075 444.643 160.679 462.545 166.481C465.386 167.536 468.227 168.921 471.158 169.58C482.702 172.085 491.676 179.338 499.161 193.447C512.103 217.776 526.488 240.457 540.287 263.796C541.685 265.972 543.037 268.214 544.435 270.39C545.337 271.972 546.194 273.62 547.096 275.269C548.404 277.906 549.621 280.675 551.064 283.115C579.112 331.377 607.206 379.507 635.254 427.703C637.238 431.066 639.042 434.692 640.936 438.186L642.695 436.011C644.093 420.121 639.538 407 632.999 395.067ZM359.235 987.069C343.768 979.157 328.211 971.509 312.743 963.795C289.069 951.532 265.44 939.268 241.811 927.071C239.917 926.016 238.068 924.961 236.174 924.038C219.534 915.929 202.895 907.951 186.255 899.907C182.377 897.797 178.499 895.622 174.621 893.644C156.854 884.611 139.042 875.644 121.23 866.612C97.5557 854.282 73.8364 842.019 50.1622 829.69C46.8252 827.844 43.5334 825.998 40.1964 824.283C21.3021 814.723 2.40782 805.163 -16.4865 795.603C-26.3169 790.262 -36.0572 784.658 -46.0229 779.779C-51.9302 776.812 -56.62 772.263 -60.1373 764.549C-62.9782 758.22 -66.3602 752.286 -69.4717 746.22C-69.607 745.693 -69.6972 745.099 -69.8775 744.703C-89.2679 707.716 -108.613 670.728 -128.049 633.806C-129.311 631.433 -131.07 629.586 -132.603 627.477C-133.279 627.872 -133.911 628.268 -134.587 628.663C-133.73 639.476 -135.264 652.597 -131.566 660.706C-113.979 699.474 -94.9497 736.792 -76.4161 774.637C-72.1773 783.867 -68.164 793.427 -63.5193 802.196C-61.1744 806.614 -58.0179 810.833 -54.5908 812.877C-43.633 819.536 -32.3595 825.074 -21.2213 831.074C2.13725 843.008 25.4508 854.876 48.8094 866.809C71.717 878.479 94.6246 890.149 117.487 901.885C138.14 912.5 158.793 923.181 179.446 933.796C185.579 937.027 191.712 940.389 197.889 943.488C209.479 949.356 221.113 955.026 232.702 960.762C257.098 973.355 281.448 985.948 305.844 998.541C323.836 1007.77 342.19 1015.75 359.731 1026.63C370.193 1033.09 377.814 1030.12 385.66 1020.43C389.087 1016.15 392.83 1012.52 397.475 1007.44C383.721 1000.12 371.501 993.399 359.235 987.069ZM630.474 342.981C616.54 316.608 602.742 290.037 588.853 263.599C588.447 262.544 588.041 261.555 587.635 260.5L587.545 260.368C587.229 259.775 586.914 259.115 586.553 258.522C586.282 257.994 586.012 257.401 585.741 256.874C583.306 251.731 581.051 246.39 578.436 241.38C561.977 209.732 545.382 178.217 528.878 146.57C520.851 131.142 513.14 115.45 504.708 100.483C502.182 96.0658 497.989 92.4395 494.111 91.1209C481.078 86.6375 467.821 83.3409 454.654 79.5828C430.213 72.3963 405.817 65.1438 381.376 57.9572C374.612 55.9133 367.893 53.7375 361.129 51.7596C340.837 45.8916 320.499 40.0896 300.207 34.2876C299.892 34.0239 299.576 33.5624 299.26 33.4965C270.986 25.189 242.713 17.0135 214.439 8.77202C197.213 3.5634 180.032 -1.71115 162.806 -6.72198C148.918 -10.7438 134.939 -14.5019 121.005 -18.3919C120.328 -18.8534 119.652 -19.4468 118.975 -19.6446C95.2109 -26.8312 71.4013 -34.0837 47.6369 -41.0725C41.8198 -42.7867 35.642 -45.9514 30.1405 -44.5009C21.9334 -42.4571 14.1322 -36.9188 6.1506 -32.831C6.1506 -31.842 6.19569 -30.853 6.19569 -29.8641C43.6686 -18.4579 81.0965 -7.05164 118.569 4.28865C125.153 6.4644 131.692 8.70607 138.275 10.75C164.069 18.5959 189.863 26.3758 215.656 34.2217C225.712 37.3864 235.723 40.683 245.779 43.7159C263.14 48.9904 280.546 54.1331 297.953 59.2758C305.573 61.7153 313.149 64.3526 320.815 66.6602C338.717 72.0007 356.665 77.2093 374.567 82.4838C381.827 84.9233 389.087 87.4947 396.392 89.7363C415.422 95.5383 434.497 101.208 453.526 106.879C463.582 110.043 473.593 113.604 483.739 116.307C493.119 118.746 500.469 125.01 505.745 136.812C508.225 142.284 511.382 147.031 514.222 152.108C525.676 173.734 537.085 195.425 548.629 216.919C557.377 233.336 566.261 249.489 575.144 265.774C575.685 267.159 576.181 268.675 576.858 269.928C594.67 303.422 612.482 336.915 630.339 370.408C632.007 373.507 633.946 376.276 635.75 379.177C636.742 365.727 636.066 353.596 630.474 342.981ZM543.128 857.447C521.979 846.239 500.784 835.096 479.635 823.954C458.261 812.35 436.887 800.812 415.512 789.208C412.265 787.295 409.064 785.186 405.727 783.471C383.631 771.933 361.49 760.593 339.394 749.121C311.706 734.352 284.019 719.583 256.376 704.815C229.275 690.244 202.173 675.673 175.072 661.102C149.504 647.388 123.936 633.608 98.4125 619.895C97.195 619.367 95.9324 618.971 94.7599 618.378C68.6055 604.203 42.4511 589.961 16.2967 575.786C14.042 574.467 11.8324 573.017 9.57774 571.83C-11.0752 561.545 -31.5478 550.666 -48.954 530.491C-51.1185 527.985 -53.6438 526.139 -56.0337 523.964C-63.4291 516.513 -70.7794 508.997 -78.2199 501.613C-93.3714 486.448 -108.523 471.284 -123.765 456.252C-124.982 455.065 -126.786 455.065 -128.319 454.471C-128.68 456.449 -129.131 458.427 -129.311 460.471C-130.844 474.91 -128.725 486.91 -118.714 493.569C-117.361 494.492 -116.369 496.338 -115.152 497.657C-98.1514 516.909 -81.1059 536.161 -64.0604 555.413C-58.4237 561.743 -52.5615 567.742 -47.1954 574.533C-29.5186 596.884 -7.37753 605.192 13.8166 616.466C20.265 620.026 26.6683 623.85 33.1618 627.279C51.4699 636.905 69.823 646.399 88.1311 655.959C88.537 656.289 88.9428 656.553 89.3487 656.882C90.0702 657.278 90.8368 657.608 91.5583 657.937C116.36 671.19 141.116 684.442 165.873 697.76C170.923 700.529 175.929 703.496 180.979 706.133C203.752 718.199 226.524 730.264 249.296 742.264C265.26 750.901 281.178 759.604 297.141 768.109C309.767 774.834 322.484 781.296 335.155 787.889C345.436 793.559 355.673 799.427 365.999 804.965C381.241 813.075 396.528 820.921 411.814 828.898C432.828 840.041 453.842 851.184 474.856 862.326C475.487 862.919 476.073 863.645 476.75 864.04C490.774 871.622 504.798 879.205 518.867 886.589C520.13 887.248 522.069 887.248 523.151 886.259C530.231 879.6 537.265 872.743 544.165 865.623C547.186 862.458 546.555 859.227 543.128 857.447ZM639.132 454.471C618.615 422.099 598.818 388.803 578.707 355.903C568.696 339.354 558.64 322.806 548.584 306.388C535.371 284.829 522.114 263.335 508.856 241.841C502.814 231.951 496.997 221.732 490.683 212.238C487.888 208.15 484.37 203.996 480.673 202.546C466.107 196.942 451.317 192.458 436.616 187.513C410.326 178.415 383.992 169.25 357.702 160.086C329.157 150.262 300.568 140.372 272.024 130.548C270.04 130.021 268.1 129.559 266.161 128.9C237.662 119.01 209.163 109.12 180.709 99.2305C153.292 89.8023 125.83 80.44 98.4125 71.0776C90.1153 68.1766 81.818 65.2756 73.5208 62.4406C55.5734 56.3089 37.581 50.2431 19.5885 44.1115C1.41576 37.6502 -16.6218 30.1999 -34.9749 25.0572C-42.3252 23.0133 -51.1636 20.9035 -57.5669 29.8702C-65.0525 40.3534 -66.0446 55.188 -68.4345 69.4293C-61.3999 65.8031 -54.9064 61.7153 -48.8187 56.5726C-43.182 51.8255 -37.5453 51.7596 -31.5478 53.8035C-16.261 59.078 -0.929108 64.2866 14.4028 69.4953C20.4453 71.8688 26.533 74.4401 32.6207 76.55C52.2816 83.4728 71.9876 90.1979 91.6485 96.9889C104.635 101.802 117.622 106.747 130.655 111.362C147.294 117.23 163.979 122.9 180.664 128.636C210.38 139.449 240.052 150.196 269.769 161.009C298.223 171.096 326.677 181.184 355.132 191.271C364.331 194.766 373.44 198.458 382.639 201.623C400.225 207.754 417.857 213.556 435.444 219.424C436.3 219.886 437.157 220.413 438.014 220.743C461.282 229.776 484.776 238.017 500.243 268.609C500.379 268.807 500.559 268.873 500.739 269.005C519.904 298.674 539.069 328.278 558.234 357.881C559.136 359.595 559.948 361.442 560.985 363.024C586.147 401.792 611.309 440.56 636.472 479.394C640.079 484.998 643.506 490.866 647.024 496.668C649.233 479.46 646.663 466.405 639.132 454.471ZM592.28 439.637H592.325C592.325 439.637 592.37 439.637 592.37 439.571H592.28V439.637ZM492.352 908.412C467.776 895.226 443.155 882.106 418.533 868.985C394.904 856.59 371.32 844.261 347.691 831.865C346.699 831.074 345.797 830.019 344.76 829.558C319.778 816.833 294.751 804.174 269.769 791.449C266.522 789.669 263.275 787.757 259.984 786.043C239.962 775.626 219.94 765.208 199.874 754.725C174.305 741.143 148.782 727.561 123.214 713.979C117.442 710.815 111.76 707.452 105.943 704.485C88.4468 695.321 70.9053 686.288 53.3638 677.189C33.0265 666.311 12.7343 655.498 -7.55792 644.685C-10.489 642.905 -13.4201 640.993 -16.3963 639.542C-27.6246 634.004 -38.4923 627.872 -47.1954 615.279C-52.3361 607.829 -58.2884 601.5 -63.8801 594.643C-84.3526 567.281 -104.87 539.919 -125.433 512.689C-126.831 510.843 -128.95 510.184 -131.16 508.667C-131.791 541.699 -133.956 534.842 -120.518 554.49C-105.547 576.379 -90.3501 597.939 -75.2437 619.631C-68.7502 628.729 -61.8959 637.3 -55.9436 647.058C-44.0839 666.376 -28.7971 676.2 -12.2928 683.123C-6.16 686.486 -0.117432 690.112 6.06041 693.277C20.6257 700.793 35.2361 708.177 49.8465 715.562C72.7542 727.693 95.7069 739.759 118.615 751.824C143.461 764.879 168.308 777.999 193.109 791.054C193.47 791.317 193.786 791.581 194.102 791.845C194.913 792.174 195.68 792.438 196.492 792.768C204.654 797.251 212.815 801.998 221.068 806.284C234.911 813.471 248.8 820.459 262.689 827.58C267.92 830.481 273.106 833.58 278.382 836.349C298.809 847.03 319.237 857.579 339.664 868.194C349.63 873.6 359.596 879.205 369.607 884.413C384.037 891.863 398.512 899.116 412.942 906.434C431.205 916.126 449.423 926.016 467.776 935.378C469.534 936.302 472.33 935.313 474.089 933.796C480.492 928.258 486.76 922.192 492.983 916.126C493.93 915.137 495.103 913.159 495.013 911.841C494.922 910.522 493.434 909.006 492.352 908.412ZM525.135 767.582C519.047 764.219 512.96 760.659 506.827 757.362C489.827 748.198 472.781 739.165 455.736 730.067C451.768 727.825 447.799 725.385 443.786 723.276C424.486 712.924 405.186 702.639 385.885 692.354C365.638 681.541 345.436 670.662 325.234 659.849C301.199 646.663 277.164 633.542 253.129 620.422C245.328 616.07 237.527 611.587 229.681 607.367C210.741 597.082 191.802 586.929 172.817 576.775C172.502 576.511 172.141 576.248 171.825 575.918C145.536 561.611 119.246 547.304 92.9562 532.996C66.6214 518.821 40.3317 504.58 13.9969 490.404C1.95689 483.218 -10.2184 476.361 -22.1683 468.779C-34.2985 461.065 -46.2033 452.691 -58.1982 444.582C-80.8353 428.56 -103.427 412.539 -127.462 395.462C-127.688 405.748 -128.139 413.989 -127.958 422.231C-127.868 424.341 -126.064 426.978 -124.576 428.231C-106.268 443.593 -87.87 458.757 -69.5168 473.987C-69.156 474.185 -68.7953 474.383 -68.4345 474.581C-68.0738 474.976 -67.713 475.306 -67.3523 475.701C-65.4584 477.416 -63.5644 479.13 -61.6705 480.844C-39.8451 499.833 -17.7491 518.096 6.64664 529.37C15.7105 534.447 24.7292 539.655 33.8382 544.6C50.8386 553.765 67.884 562.732 84.8844 571.764C111.941 586.533 138.997 601.302 166.053 616.07C193.47 630.905 220.932 645.74 248.349 660.64C271.663 673.233 294.931 685.892 318.245 698.485C323.115 701.188 327.94 704.09 332.81 706.661C347.511 714.507 362.211 722.221 376.912 730.001C381.06 732.44 385.209 734.946 389.403 737.187C409.65 748 429.897 758.747 450.144 769.494C474.179 782.614 498.259 795.735 522.294 808.855C534.199 815.448 546.465 820.921 557.873 828.964C569.913 837.47 579.834 835.558 589.394 822.437C592.641 818.02 596.609 814.591 601.569 809.251C574.874 794.746 549.982 781.164 525.135 767.582ZM346.744 1052.93C338.266 1048.25 329.879 1043.37 321.311 1039.02C304.04 1030.25 286.634 1021.75 269.318 1013.18C248.8 1002.96 228.283 992.805 207.765 982.586C188.239 972.696 168.669 962.872 149.143 953.048C145.31 951.004 141.477 948.828 137.599 946.917C119.291 937.818 100.938 928.719 82.6297 919.621C59.722 908.017 36.8144 896.413 13.9067 884.809C9.93849 882.765 5.97023 880.721 2.00197 878.545C-15.3591 869.249 -32.8555 860.348 -50.0363 850.392C-56.4847 846.634 -62.2116 840.371 -68.2993 835.228C-76.6867 816.042 -85.0742 796.922 -93.5067 777.801C-104.645 752.418 -115.828 727.034 -127.056 701.716C-129.176 696.969 -131.746 692.617 -134.136 688.134C-134.677 688.596 -135.173 688.991 -135.714 689.453C-135.985 700.991 -136.887 712.265 -133.009 723.605C-118.218 766.923 -97.024 802.987 -74.1614 837.272C-70.5539 842.744 -67.5778 849.865 -63.2488 853.425C-39.4843 872.875 -15.4042 891.468 8.58568 910.39C29.419 932.741 54.1304 941.576 77.985 953.51C100.216 964.652 122.402 975.861 144.634 987.003C164.159 996.893 183.73 1006.85 203.256 1016.74C207.269 1018.91 211.282 1021.16 215.341 1023.2C231.214 1031.11 247.087 1038.96 262.96 1046.8C283.072 1057.02 303.138 1067.31 323.295 1077.4C324.242 1077.92 325.73 1077.92 326.497 1077.13C333.441 1070.14 340.341 1062.89 347.195 1055.7C347.06 1054.78 346.879 1053.86 346.744 1052.93ZM646.167 517.766C628.761 492.184 611.174 466.867 593.633 441.483C593.182 440.889 592.776 440.296 592.325 439.703H592.28L592.37 439.571C588.176 433.044 584.118 426.253 579.744 419.923C563.465 396.188 547.141 372.518 530.817 348.849C527.886 344.629 524.91 340.541 522.114 336.19C507.954 314.498 493.028 294.455 472.736 285.554C469.264 284.038 465.927 281.994 462.545 280.214C439.998 267.555 417.451 254.83 394.904 242.171C387.915 238.479 381.015 234.061 373.845 231.16C353.508 222.919 333.036 215.271 312.608 207.359C309.001 206.172 305.393 205.117 301.831 203.798C273.106 193.117 244.381 182.371 215.656 171.69C181.836 159.097 148.016 146.57 114.195 133.977C94.6697 126.526 75.1892 119.01 55.6185 111.692C40.6023 106.087 25.541 100.813 10.4796 95.4065C-2.32701 90.3957 -15.0886 84.9893 -27.9854 80.5059C-31.1871 79.3851 -35.1553 79.8466 -38.2217 81.6267C-50.0814 88.3518 -61.7607 95.8021 -73.3949 103.252C-75.2888 104.439 -77.4984 106.813 -78.2199 109.45C-80.7902 118.878 -82.8195 128.702 -85.2545 139.251C-83.7664 139.251 -82.8646 139.581 -82.1431 139.185C-67.0366 132.065 -51.8851 125.142 -36.914 117.494C-29.1578 113.538 -21.7174 112.483 -13.871 116.571C-9.00092 119.142 -3.86021 120.263 1.19028 122.043C14.1322 127.186 27.029 132.526 40.0161 137.537C65.0882 147.229 90.2055 156.657 115.323 166.217C149.143 179.404 182.963 192.524 216.784 205.711C247.583 217.71 278.427 229.71 309.226 241.709C314.592 244.874 319.958 247.973 325.324 251.072C346.654 263.401 367.938 275.664 389.268 287.993C411.318 300.85 433.369 313.641 455.375 326.498C458.982 328.739 462.59 330.915 466.152 333.223C484.506 345.025 504.753 351.288 519.859 372.518C526.758 382.078 533.658 391.704 540.602 401.264C555.438 421.571 570.364 441.878 585.245 462.185C608.198 493.899 631.151 525.612 655.141 558.776C656.223 541.502 653.427 528.447 646.167 517.766ZM592.28 439.637H592.325C592.325 439.637 592.37 439.637 592.37 439.571H592.28V439.637ZM622.989 282.983C607.927 251.797 592.956 220.479 577.94 189.293C556.791 145.383 535.597 101.472 514.403 57.6275C511.878 50.0454 508.045 45.1005 502.137 43.65C487.031 39.8259 471.97 35.6063 456.908 31.5844C436.977 26.1121 417.09 20.6397 397.159 15.1674C373.53 8.772 349.901 2.37662 326.271 -4.01877C307.422 -9.29332 288.618 -14.6997 269.769 -19.8424C261.111 -22.216 252.498 -24.3258 243.84 -26.5015C231.214 -29.93 218.542 -33.2925 205.916 -36.8528C189.592 -41.3362 173.313 -46.0174 157.034 -50.6326C155.186 -51.2919 153.427 -52.0831 151.578 -52.5446C130.88 -58.1488 110.272 -64.4783 89.4839 -69.0276C79.0673 -71.3352 68.6506 -68.9617 58.9104 -56.9621C70.7249 -53.4677 81.4122 -50.237 92.0994 -47.2041C114.466 -40.8747 136.878 -34.6771 159.244 -28.4136C187.022 -20.3039 214.8 -12.2603 242.532 -4.21657C252.227 -1.44743 261.923 1.45357 271.618 4.09085C288.663 8.83794 305.709 13.3872 322.754 18.0025L390.395 37.5842C398.782 40.1556 407.17 42.8588 415.557 45.2323C428.589 48.9245 441.621 52.353 454.654 55.9133C455.916 56.4408 457.134 57.1001 458.396 57.4957C473.638 61.979 488.925 66.4624 504.212 70.8798C511.742 85.5826 519.318 100.154 526.713 114.922C539.655 140.768 552.462 166.745 565.314 192.59C586.643 235.841 608.018 279.027 629.347 322.212C631.421 307.114 628.625 294.587 622.989 282.983ZM613.248 219.161C604.5 199.381 595.932 179.404 587.094 159.756C582.269 149.009 577.038 138.658 572.033 128.109C555.438 90.8572 538.844 53.6057 522.249 16.4201C518.326 4.94797 512.013 -0.65625 503.31 -1.77708C496.816 -2.56827 490.413 -4.80995 483.965 -6.12859C477.2 -7.57909 470.436 -8.69994 463.672 -9.95264C461.598 -11.0076 459.569 -12.4581 457.404 -13.0514C437.698 -17.9963 417.992 -22.7434 398.286 -27.6224C372.718 -34.2156 347.15 -40.8088 321.627 -47.336C319.237 -47.6657 316.802 -47.6657 314.412 -48.2591C293.533 -53.8633 272.61 -59.5993 251.731 -65.2695C247.538 -66.3903 243.389 -67.643 239.15 -68.7639C223.458 -72.7857 207.72 -76.8076 191.982 -80.7635C175.839 -85.2468 159.74 -90.3895 143.506 -93.818C132.098 -96.2575 120.824 -93.818 109.821 -81.8843C136.021 -74.9615 161.138 -68.3683 186.21 -61.7092C190.043 -60.5883 193.876 -59.3356 197.754 -58.3466C215.747 -53.7314 233.739 -49.1821 251.731 -44.6328C272.429 -39.1605 293.128 -33.6881 313.826 -28.2158C314.006 -28.1498 314.231 -28.1498 314.412 -28.0839C317.208 -27.1609 320.003 -26.2378 322.754 -25.3148C347.962 -18.5897 373.124 -11.9306 398.286 -5.20555C398.872 -5.13962 399.504 -5.00775 400.135 -4.87589C400.586 -4.61215 401.082 -4.41437 401.533 -4.15063C407.936 -2.43642 414.34 -0.722183 420.743 0.926117C434.316 4.4205 447.844 7.84897 461.418 11.2774C462.861 11.8049 464.304 12.5301 465.747 12.9257C480.763 17.0794 495.824 21.2331 510.84 25.3868C519.228 42.8588 527.66 60.3307 536.003 77.8686C544.525 95.8021 553.003 113.867 561.526 131.867C561.887 133.12 562.202 134.438 562.698 135.559C581.502 175.843 600.261 216.062 619.065 256.28C620.508 259.379 622.132 262.412 624.296 266.763C624.116 247.643 619.426 233.006 613.248 219.161ZM577.985 104.901C564.006 55.0562 542.586 11.4093 523.557 -34.2156C522.52 -36.655 520.175 -38.7649 518.236 -39.3583C513.636 -40.7428 508.946 -41.0725 504.302 -41.8637C478.734 -47.9294 453.165 -53.9951 427.597 -60.0609L359.957 -76.0823C359.1 -76.5438 358.243 -77.2031 357.341 -77.4009C335.696 -82.8074 314.006 -88.2138 292.316 -93.5542C279.915 -96.5871 267.559 -99.62 255.159 -102.587C246.14 -104.763 237.076 -106.807 228.057 -108.85C213.808 -112.213 199.648 -116.037 185.353 -118.608C175.929 -120.323 167.181 -115.312 158.748 -108.521C161.589 -106.279 164.475 -104.631 167.496 -103.774C175.162 -101.598 182.873 -99.6859 190.584 -97.8398C203.436 -94.807 216.288 -91.906 229.139 -89.005C229.816 -88.5434 230.492 -87.95 231.169 -87.7522C251.551 -82.8074 271.933 -77.9284 292.316 -73.0494C297.998 -71.533 303.679 -69.8847 309.361 -68.5001C326.587 -64.4124 343.858 -60.3246 361.084 -56.3027C364.195 -55.3797 367.307 -54.2589 370.418 -53.4677C387.915 -49.314 405.456 -45.2921 422.953 -41.2043C448.205 -34.743 473.413 -28.2817 498.665 -21.8204C501.055 -21.1611 503.4 -20.1721 505.835 -19.9084C514.087 -18.9853 520.085 -14.1063 524.188 -2.832C528.833 9.89285 534.695 21.7606 540.061 34.0239C552.417 62.1109 564.773 90.2638 577.218 118.285C578.616 121.45 580.691 124.087 582.449 126.922C582.855 126.329 583.306 125.801 583.712 125.208C581.818 118.417 579.879 111.692 577.985 104.901ZM265.305 1080.63C256.241 1076.34 247.222 1072.12 238.203 1067.84C227.381 1062.1 216.558 1056.3 205.736 1050.5C190.855 1043.18 176.019 1035.86 161.183 1028.54C160.777 1029.79 160.417 1031.05 160.056 1032.3C163.032 1034.54 166.053 1036.72 168.984 1039.09C180.032 1048.06 191.125 1057.15 202.173 1066.19C213.041 1074.89 223.954 1083.66 234.821 1092.36C243.479 1099.02 252.137 1105.68 260.795 1112.34C260.931 1112.54 261.021 1112.8 261.201 1112.93C271.979 1122.43 282.395 1125.59 292.451 1110.63C295.157 1106.54 298.629 1103.64 302.958 1098.96C289.249 1092.23 277.255 1086.43 265.305 1080.63ZM542.767 734.22C542.271 735.143 541.82 736.132 541.369 737.121C542.135 737.517 542.902 737.979 543.669 738.374C543.353 736.99 543.082 735.605 542.767 734.22ZM313.781 -28.2158L314.096 -27.8202L314.367 -28.0839C314.367 -28.0839 313.961 -28.1498 313.781 -28.2158Z" fill="white" fill-opacity="0.05"/>
</svg>
