<svg width="12" height="12" viewBox="0 0 12 12" fill="none" xmlns="http://www.w3.org/2000/svg">
<path id="Vector" d="M5.28501 0.28591L0.285014 5.28591C0.193973 5.38101 0.122608 5.49316 0.0750135 5.61591C-0.0250045 5.85937 -0.0250045 6.13245 0.0750135 6.37591C0.122608 6.49866 0.193973 6.6108 0.285014 6.70591L5.28501 11.7059C5.37825 11.7991 5.48894 11.8731 5.61076 11.9236C5.73259 11.974 5.86315 12 5.99501 12C6.26132 12 6.51671 11.8942 6.70501 11.7059C6.89332 11.5176 6.9991 11.2622 6.9991 10.9959C6.9991 10.7296 6.89332 10.4742 6.70501 10.2859L3.40501 6.99591H10.995C11.2602 6.99591 11.5146 6.89055 11.7021 6.70301C11.8897 6.51548 11.995 6.26112 11.995 5.99591C11.995 5.73069 11.8897 5.47634 11.7021 5.2888C11.5146 5.10127 11.2602 4.99591 10.995 4.99591H3.40501L6.70501 1.70591C6.79874 1.61294 6.87314 1.50235 6.9239 1.38049C6.97467 1.25863 7.00081 1.12792 7.00081 0.995909C7.00081 0.863897 6.97467 0.733191 6.9239 0.611332C6.87314 0.489472 6.79874 0.378873 6.70501 0.28591C6.61205 0.192182 6.50145 0.117785 6.37959 0.0670166C6.25773 0.0162477 6.12703 -0.0098896 5.99501 -0.0098896C5.863 -0.0098896 5.7323 0.0162477 5.61044 0.0670166C5.48858 0.117785 5.37798 0.192182 5.28501 0.28591Z" fill="black"/>
</svg>
