<svg width="21" height="18" viewBox="0 0 21 18" fill="none" xmlns="http://www.w3.org/2000/svg">
<g id="Group">
<path id="Vector" d="M17 1H3.90909C3.13755 1 2.39761 1.30649 1.85205 1.85205C1.30649 2.39761 1 3.13755 1 3.90909V11.1818C1 11.9534 1.30649 12.6933 1.85205 13.2389C2.39761 13.7844 3.13755 14.0909 3.90909 14.0909H11.9091L16.2727 17V14.0909H17C17.7715 14.0909 18.5115 13.7844 19.057 13.2389C19.6026 12.6933 19.9091 11.9534 19.9091 11.1818V3.90909C19.9091 3.13755 19.6026 2.39761 19.057 1.85205C18.5115 1.30649 17.7715 1 17 1Z" stroke="black" stroke-linecap="round" stroke-linejoin="round"/>
<path id="Vector_2" d="M6.09126 8.27293C6.09126 8.46581 6.01464 8.6508 5.87825 8.78719C5.74186 8.92358 5.55688 9.0002 5.36399 9.0002C5.17111 9.0002 4.98612 8.92358 4.84973 8.78719C4.71334 8.6508 4.63672 8.46581 4.63672 8.27293C4.63672 8.08004 4.71334 7.89506 4.84973 7.75867C4.98612 7.62228 5.17111 7.54565 5.36399 7.54565C5.55688 7.54565 5.74186 7.62228 5.87825 7.75867C6.01464 7.89506 6.09126 8.08004 6.09126 8.27293ZM10.4549 8.27293C10.4549 8.46581 10.3783 8.6508 10.2419 8.78719C10.1055 8.92358 9.92051 9.0002 9.72763 9.0002C9.53474 9.0002 9.34976 8.92358 9.21337 8.78719C9.07698 8.6508 9.00035 8.46581 9.00035 8.27293C9.00035 8.08004 9.07698 7.89506 9.21337 7.75867C9.34976 7.62228 9.53474 7.54565 9.72763 7.54565C9.92051 7.54565 10.1055 7.62228 10.2419 7.75867C10.3783 7.89506 10.4549 8.08004 10.4549 8.27293ZM14.8185 8.27293C14.8185 8.46581 14.7419 8.6508 14.6055 8.78719C14.4691 8.92358 14.2841 9.0002 14.0913 9.0002C13.8984 9.0002 13.7134 8.92358 13.577 8.78719C13.4406 8.6508 13.364 8.46581 13.364 8.27293C13.364 8.08004 13.4406 7.89506 13.577 7.75867C13.7134 7.62228 13.8984 7.54565 14.0913 7.54565C14.2841 7.54565 14.4691 7.62228 14.6055 7.75867C14.7419 7.89506 14.8185 8.08004 14.8185 8.27293Z" stroke="black" stroke-linecap="round" stroke-linejoin="round"/>
</g>
</svg>
