<svg width="18" height="20" viewBox="0 0 18 20" fill="none" xmlns="http://www.w3.org/2000/svg">
<g id="Group">
<path id="Vector" d="M12.5559 15.2223C12.5559 14.2793 12.1813 13.3749 11.5145 12.7081C10.8477 12.0413 9.94337 11.6667 9.00038 11.6667C8.05739 11.6667 7.15302 12.0413 6.48622 12.7081C5.81943 13.3749 5.44482 14.2793 5.44482 15.2223" stroke="black" stroke-linecap="round" stroke-linejoin="round"/>
<path id="Vector_2" d="M9.00016 11.6666C10.4729 11.6666 11.6668 10.4727 11.6668 8.99992C11.6668 7.52716 10.4729 6.33325 9.00016 6.33325C7.5274 6.33325 6.3335 7.52716 6.3335 8.99992C6.3335 10.4727 7.5274 11.6666 9.00016 11.6666Z" stroke="black" stroke-linecap="round" stroke-linejoin="round"/>
<path id="Vector_3" d="M15.2222 2.77759H2.77778C1.79594 2.77759 1 3.57353 1 4.55537V16.9998C1 17.9816 1.79594 18.7776 2.77778 18.7776H15.2222C16.2041 18.7776 17 17.9816 17 16.9998V4.55537C17 3.57353 16.2041 2.77759 15.2222 2.77759Z" stroke="black" stroke-linecap="round" stroke-linejoin="round"/>
<path id="Vector_4" d="M5.44482 1V2.77778M12.5559 1V2.77778" stroke="black" stroke-linecap="round" stroke-linejoin="round"/>
</g>
</svg>
