<svg width="59" height="43" viewBox="0 0 59 43" fill="none" xmlns="http://www.w3.org/2000/svg">
<path d="M33.8854 39.3809L19.493 1.682C19.3045 1.18793 18.9669 0.762168 18.5254 0.461606C18.0839 0.161043 17.5595 0 17.0224 0C16.4852 0 15.9608 0.161043 15.5193 0.461606C15.0778 0.762168 14.7402 1.18793 14.5517 1.682L0.159327 39.3809C-0.0787134 40.0229 -0.0490628 40.7312 0.241829 41.3518C0.532721 41.9724 1.06132 42.4551 1.71265 42.6949C2.36398 42.9346 3.08534 42.9121 3.71982 42.6321C4.3543 42.3521 4.85058 41.8374 5.1007 41.1999L9.43759 29.8407C9.45467 29.7958 9.48529 29.7571 9.52537 29.7297C9.56544 29.7024 9.61306 29.6877 9.66187 29.6876H24.3828C24.4316 29.6877 24.4793 29.7024 24.5193 29.7297C24.5594 29.7571 24.59 29.7958 24.6071 29.8407L28.944 41.1999C29.1941 41.8374 29.6904 42.3521 30.3249 42.6321C30.9594 42.9121 31.6807 42.9346 32.332 42.6949C32.9834 42.4551 33.512 41.9724 33.8029 41.3518C34.0938 40.7312 34.1234 40.0229 33.8854 39.3809ZM11.5964 24.1835L16.7981 10.5589C16.8153 10.5142 16.846 10.4757 16.8861 10.4486C16.9262 10.4214 16.9737 10.4069 17.0224 10.4069C17.071 10.4069 17.1185 10.4214 17.1586 10.4486C17.1987 10.4757 17.2294 10.5142 17.2466 10.5589L22.4483 24.1859C22.4618 24.2215 22.4664 24.2598 22.4616 24.2975C22.4568 24.3352 22.4428 24.3713 22.4208 24.4025C22.3987 24.4338 22.3693 24.4593 22.3351 24.477C22.3008 24.4946 22.2627 24.5039 22.224 24.504H11.8207C11.782 24.5039 11.7439 24.4946 11.7096 24.477C11.6754 24.4593 11.646 24.4338 11.6239 24.4025C11.6019 24.3713 11.5879 24.3352 11.5831 24.2975C11.5783 24.2598 11.5829 24.2215 11.5964 24.1859V24.1835ZM46.8589 11.3094C41.8551 11.274 37.3743 14.1215 35.4649 18.5428C35.1914 19.1755 35.1849 19.8891 35.4469 20.5265C35.709 21.1639 36.2181 21.6729 36.8622 21.9416C37.5063 22.2103 38.2327 22.2167 38.8816 21.9593C39.5306 21.7019 40.0488 21.2019 40.3223 20.5692C41.3874 18.1081 43.8928 16.5118 46.7173 16.493C50.5937 16.467 53.7228 19.6149 53.7228 23.426C53.7228 23.4719 53.7047 23.516 53.6723 23.5489C53.6398 23.5819 53.5956 23.6012 53.5489 23.6027C50.9199 23.6746 47.8016 23.8466 45.019 24.1682C38.4525 24.9269 34.533 28.4435 34.533 33.5753C34.533 36.3073 35.5837 38.7589 37.4919 40.4883C39.2825 42.1082 41.7292 43 44.3678 43C48.0858 43 51.2869 42.0575 53.7156 40.2645H53.7228C53.7213 40.6048 53.7881 40.9422 53.9193 41.2572C54.0505 41.5722 54.2436 41.8587 54.4876 42.1004C54.7315 42.3421 55.0216 42.5343 55.3411 42.6659C55.6607 42.7975 56.0035 42.866 56.35 42.8675C56.6965 42.8689 57.0399 42.8033 57.3606 42.6745C57.6813 42.5456 57.973 42.3559 58.2191 42.1163C58.4652 41.8766 58.6608 41.5917 58.7948 41.2778C58.9288 40.964 58.9985 40.6272 59 40.2869V23.4402C59 16.8216 53.6029 11.3577 46.8589 11.3094ZM44.3678 37.8164C42.2653 37.8164 39.8102 36.7055 39.8102 33.5753C39.8102 32.3182 40.2696 31.4382 41.301 30.7208C42.3049 30.0222 43.8437 29.5238 45.6355 29.3165C48.1686 29.0231 51.0111 28.8617 53.4482 28.7899C53.4807 28.7898 53.5129 28.7963 53.5428 28.8089C53.5727 28.8214 53.5997 28.8398 53.6222 28.863C53.6446 28.8861 53.662 28.9135 53.6733 28.9435C53.6847 28.9734 53.6897 29.0054 53.688 29.0373C53.363 34.9419 50.2998 37.8164 44.3678 37.8164Z" fill="#179CFD"/>
</svg>
