<svg width="81" height="81" viewBox="0 0 81 81" fill="none" xmlns="http://www.w3.org/2000/svg">
<g id="Group">
<path id="Vector" d="M3 18C3 14.0217 4.58035 10.2064 7.3934 7.39339C10.2064 4.58035 14.0218 3 18 3H63C66.9782 3 70.7936 4.58035 73.6066 7.39339C76.4196 10.2064 78 14.0217 78 18V62.9999C78 66.9781 76.4196 70.7934 73.6066 73.6065C70.7936 76.4195 66.9782 77.9999 63 77.9999H18C14.0218 77.9999 10.2064 76.4195 7.3934 73.6065C4.58035 70.7934 3 66.9781 3 62.9999V18Z" stroke="#179CFD" stroke-width="5" stroke-linecap="round" stroke-linejoin="round"/>
<path id="Vector_2" d="M27.3755 36.75C32.5532 36.75 36.7505 32.5526 36.7505 27.375C36.7505 22.1973 32.5532 18 27.3755 18C22.1978 18 18.0005 22.1973 18.0005 27.375C18.0005 32.5526 22.1978 36.75 27.3755 36.75Z" stroke="#179CFD" stroke-width="5" stroke-linecap="round" stroke-linejoin="round"/>
<path id="Vector_3" d="M49.973 42.8289L18.0005 78.0001H63.4992C67.3452 78.0001 71.0337 76.4723 73.7532 73.7528C76.4727 71.0333 78.0005 67.3448 78.0005 63.4988V63.0001C78.0005 61.2526 77.3442 60.5814 76.163 59.2876L61.0505 42.8064C60.3461 42.0381 59.4894 41.425 58.5349 41.0063C57.5804 40.5876 56.5491 40.3724 55.5068 40.3745C54.4645 40.3766 53.4341 40.596 52.4813 41.0186C51.5285 41.4412 50.6742 42.0577 49.973 42.8289Z" stroke="#179CFD" stroke-width="5" stroke-linecap="round" stroke-linejoin="round"/>
</g>
</svg>
