<svg width="86" height="78" viewBox="0 0 86 78" fill="none" xmlns="http://www.w3.org/2000/svg">
<path id="Vector" fill-rule="evenodd" clip-rule="evenodd" d="M43 0.396484H42.772C33.536 0.396484 26.3 0.396485 20.652 1.07878C14.876 1.77544 10.316 3.23339 6.736 6.44376C3.156 9.65772 1.536 13.7515 0.76 18.9405C2.67406e-07 24.0074 0 30.5036 0 38.7952V39.2046C0 47.4963 2.67406e-07 53.9924 0.76 59.0629C1.536 64.2483 3.16 68.3421 6.736 71.5561C10.316 74.77 14.876 76.2244 20.656 76.9211C26.3 77.6033 33.536 77.6033 42.772 77.6033H43.228C52.464 77.6033 59.7 77.6033 65.348 76.9211C71.124 76.2244 75.684 74.7664 79.264 71.5561C82.844 68.3421 84.464 64.2484 85.24 59.0593C86 53.9924 86 47.4963 86 39.2046V38.9999C86 38.2856 85.6839 37.6006 85.1213 37.0955C84.5587 36.5904 83.7957 36.3067 83 36.3067C82.2044 36.3067 81.4413 36.5904 80.8787 37.0955C80.3161 37.6006 80 38.2856 80 38.9999C80 47.5394 79.992 53.6728 79.296 58.3411L79.208 58.887L68.112 49.9202C65.5877 47.8812 62.3674 46.6714 58.9778 46.4888C55.5882 46.3061 52.2299 47.1614 49.452 48.9147L48.26 49.6688C47.2967 50.2753 46.1261 50.5573 44.954 50.4653C43.7819 50.3734 42.6835 49.9133 41.852 49.1661L24.692 33.7606C22.5031 31.7963 19.5643 30.6522 16.471 30.5602C13.3776 30.4682 10.361 31.4351 8.032 33.2651L6.004 34.8559C6.024 28.4208 6.124 23.5334 6.704 19.6587C7.392 15.0658 8.704 12.2971 10.98 10.2502C13.26 8.20695 16.34 7.03268 21.456 6.41503C26.656 5.79019 33.488 5.78301 43 5.78301C43.7957 5.78301 44.5587 5.49926 45.1213 4.99417C45.6839 4.48909 46 3.80404 46 3.08975C46 2.37545 45.6839 1.69041 45.1213 1.18532C44.5587 0.680238 43.7957 0.396484 43 0.396484ZM6.704 58.3411C7.392 62.934 8.704 65.7027 10.98 67.7496C13.26 69.7929 16.34 70.9671 21.456 71.5848C26.656 72.2096 33.488 72.2168 43 72.2168C52.512 72.2168 59.344 72.2096 64.544 71.5848C69.66 70.9671 72.744 69.7893 75.024 67.746C76.0248 66.8449 76.8425 65.7937 77.44 64.6398C77.2807 64.553 77.1308 64.4533 76.992 64.3417L64.1 53.9278C62.586 52.7024 60.6536 51.9747 58.6189 51.8638C56.5843 51.7529 54.568 52.2654 52.9 53.3173L51.712 54.0714C49.5936 55.4085 47.0176 56.0317 44.4377 55.8313C41.8577 55.631 39.4392 54.6199 37.608 52.9762L20.448 37.5707C19.3354 36.5721 17.8417 35.9906 16.2693 35.9439C14.6969 35.8972 13.1636 36.3889 11.98 37.3193L6 42.0164C6.012 49.0117 6.092 54.2438 6.704 58.3411Z" fill="white"/>
</svg>
