<svg width="20" height="20" viewBox="0 0 20 20" fill="none" xmlns="http://www.w3.org/2000/svg">
<g id="Group 34633">
<path id="Vector" d="M9.0075 5.19988C8.98656 5.04819 9.00958 4.89499 9.07505 4.75017C9.14052 4.60535 9.24701 4.47211 9.38763 4.35906C9.52826 4.246 9.6999 4.15564 9.8915 4.0938C10.0831 4.03195 10.2904 4 10.5 4C10.7096 4 10.9169 4.03195 11.1085 4.0938C11.3001 4.15564 11.4717 4.246 11.6124 4.35906C11.753 4.47211 11.8595 4.60535 11.9249 4.75017C11.9904 4.89499 12.0134 5.04819 11.9925 5.19988L11.4105 12.1272C11.388 12.2915 11.2824 12.4438 11.1141 12.5546C10.9459 12.6654 10.727 12.7268 10.5 12.7268C10.273 12.7268 10.0541 12.6654 9.88588 12.5546C9.71762 12.4438 9.61198 12.2915 9.5895 12.1272L9.0075 5.19988ZM9 14.9091C9 14.6197 9.15804 14.3423 9.43934 14.1377C9.72064 13.9331 10.1022 13.8182 10.5 13.8182C10.8978 13.8182 11.2794 13.9331 11.5607 14.1377C11.842 14.3423 12 14.6197 12 14.9091C12 15.1984 11.842 15.4759 11.5607 15.6805C11.2794 15.8851 10.8978 16 10.5 16C10.1022 16 9.72064 15.8851 9.43934 15.6805C9.15804 15.4759 9 15.1984 9 14.9091Z" fill="white"/>
<circle id="Ellipse 261" cx="10" cy="10" r="9.5" stroke="white"/>
</g>
</svg>
