<svg width="291" height="172" viewBox="0 0 291 172" fill="none" xmlns="http://www.w3.org/2000/svg">
<path d="M280.771 171.729H9.35901C6.87773 171.726 4.49889 170.739 2.74436 168.983C0.989829 167.227 0.00287405 164.846 0 162.362V9.36705C0.00287866 6.88364 0.98983 4.50277 2.74436 2.74673C4.49889 0.990695 6.87773 0.00287882 9.35901 0H280.771C283.252 0.00279819 285.631 0.990582 287.385 2.74664C289.14 4.5027 290.127 6.88362 290.13 9.36706V162.362C290.127 164.846 289.14 167.227 287.385 168.983C285.631 170.739 283.252 171.727 280.771 171.729ZM9.35901 2.08156C7.4291 2.08373 5.57885 2.852 4.2142 4.21782C2.84955 5.58364 2.08194 7.43548 2.07978 9.36705V162.362C2.08194 164.294 2.84955 166.146 4.2142 167.511C5.57885 168.877 7.4291 169.646 9.35901 169.648H280.771C282.7 169.645 284.551 168.877 285.915 167.511C287.28 166.146 288.047 164.294 288.05 162.362V9.36705C288.047 7.43551 287.28 5.58372 285.915 4.21791C284.551 2.85211 282.7 2.08382 280.771 2.08156H9.35901Z" fill="#E5E5E5"/>
</svg>
