<svg width="17" height="18" viewBox="0 0 17 18" fill="none" xmlns="http://www.w3.org/2000/svg">
<g id="Group">
<path id="Vector" d="M1 12.1999C1 9.9375 1 8.8055 1.64015 8.1031C2.27958 7.3999 3.31009 7.3999 5.36966 7.3999H11.1959C13.2554 7.3999 14.2859 7.3999 14.9254 8.1031C15.5655 8.8055 15.5655 9.9375 15.5655 12.1999C15.5655 14.4623 15.5655 15.5943 14.9254 16.2967C14.2859 16.9999 13.2554 16.9999 11.1959 16.9999H5.36966C3.31009 16.9999 2.27958 16.9999 1.64015 16.2967C1 15.5943 1 14.4623 1 12.1999Z" stroke="black" stroke-opacity="0.6" stroke-width="1.5"/>
<path id="Vector_2" d="M3.9126 7.4V5.8C3.9126 4.52696 4.37297 3.30606 5.19244 2.40589C6.01191 1.50571 7.12335 1 8.28225 1C9.44116 1 10.5526 1.50571 11.3721 2.40589C12.1915 3.30606 12.6519 4.52696 12.6519 5.8V7.4" stroke="black" stroke-opacity="0.6" stroke-width="1.5" stroke-linecap="round"/>
<path id="Vector_3" d="M5.37061 12.2H5.37716M8.27715 12.2H8.28371M11.1903 12.2H11.1968" stroke="black" stroke-opacity="0.6" stroke-width="2" stroke-linecap="round" stroke-linejoin="round"/>
</g>
</svg>
