<svg width="37" height="32" viewBox="0 0 37 32" fill="none" xmlns="http://www.w3.org/2000/svg">
<g id="Group 34391">
<rect id="Base" x="0.5" y="0.5" width="36" height="31" rx="3.5" fill="white" fill-opacity="0.7" stroke="url(#paint0_linear_225_3660)"/>
<g id="Group 34390">
<path id="Vector" d="M24.6897 16.5992V15.1724H23.5862V16.8276C23.5862 16.9739 23.6444 17.1142 23.7479 17.2177L25.2414 18.7112V19.5862H13.1034V18.7112L14.597 17.2177C14.7004 17.1142 14.7586 16.9739 14.7586 16.8276V14.6207C14.7571 13.8454 14.9602 13.0834 15.3474 12.4118C15.7346 11.7401 16.2921 11.1825 16.9638 10.7953C17.6355 10.408 18.3974 10.2049 19.1727 10.2064C19.948 10.208 20.7092 10.414 21.3793 10.8039V9.57076C20.8541 9.33822 20.2955 9.19001 19.7241 9.13159V8H18.6207V9.13103C17.2605 9.26948 15.9999 9.90737 15.0827 10.9214C14.1655 11.9354 13.6569 13.2534 13.6552 14.6207V16.5992L12.1617 18.0927C12.0582 18.1961 12 18.3364 12 18.4828V20.1379C12 20.2843 12.0581 20.4246 12.1616 20.5281C12.2651 20.6315 12.4054 20.6897 12.5517 20.6897H16.4138V21.2414C16.4138 21.973 16.7044 22.6747 17.2218 23.192C17.7391 23.7094 18.4408 24 19.1724 24C19.904 24 20.6057 23.7094 21.1231 23.192C21.6404 22.6747 21.931 21.973 21.931 21.2414V20.6897H25.7931C25.9394 20.6897 26.0798 20.6315 26.1832 20.5281C26.2867 20.4246 26.3448 20.2843 26.3448 20.1379V18.4828C26.3448 18.3364 26.2866 18.1961 26.1832 18.0927L24.6897 16.5992ZM20.8276 21.2414C20.8276 21.6804 20.6532 22.1014 20.3428 22.4118C20.0324 22.7222 19.6114 22.8966 19.1724 22.8966C18.7334 22.8966 18.3124 22.7222 18.002 22.4118C17.6916 22.1014 17.5172 21.6804 17.5172 21.2414V20.6897H20.8276V21.2414Z" fill="#636464"/>
<path id="Vector_2" d="M24.6893 14.0689C25.9082 14.0689 26.8962 13.0809 26.8962 11.862C26.8962 10.6432 25.9082 9.65515 24.6893 9.65515C23.4705 9.65515 22.4824 10.6432 22.4824 11.862C22.4824 13.0809 23.4705 14.0689 24.6893 14.0689Z" fill="#179CFD"/>
</g>
</g>
<defs>
<linearGradient id="paint0_linear_225_3660" x1="18.5" y1="1" x2="18.5" y2="31" gradientUnits="userSpaceOnUse">
<stop offset="1" stop-color="#E1EAF0"/>
</linearGradient>
</defs>
</svg>
