<svg width="61" height="60" viewBox="0 0 61 60" fill="none" xmlns="http://www.w3.org/2000/svg">
<g id="mingcute:plus-fill" clip-path="url(#clip0_23_23022)">
<g id="Group">
<path id="Vector" fill-rule="evenodd" clip-rule="evenodd" d="M22.6289 12.5C22.6289 11.1739 23.1557 9.90215 24.0934 8.96447C25.0311 8.02678 26.3028 7.5 27.6289 7.5H32.6289C33.955 7.5 35.2268 8.02678 36.1644 8.96447C37.1021 9.90215 37.6289 11.1739 37.6289 12.5V22.5H47.6289C48.955 22.5 50.2268 23.0268 51.1644 23.9645C52.1021 24.9021 52.6289 26.1739 52.6289 27.5V32.5C52.6289 33.8261 52.1021 35.0979 51.1644 36.0355C50.2268 36.9732 48.955 37.5 47.6289 37.5H37.6289V47.5C37.6289 48.8261 37.1021 50.0979 36.1644 51.0355C35.2268 51.9732 33.955 52.5 32.6289 52.5H27.6289C26.3028 52.5 25.0311 51.9732 24.0934 51.0355C23.1557 50.0979 22.6289 48.8261 22.6289 47.5V37.5H12.6289C11.3028 37.5 10.0311 36.9732 9.09337 36.0355C8.15569 35.0979 7.62891 33.8261 7.62891 32.5V27.5C7.62891 26.1739 8.15569 24.9021 9.09337 23.9645C10.0311 23.0268 11.3028 22.5 12.6289 22.5H22.6289V12.5Z" fill="#179CFD"/>
</g>
</g>
<defs>
<clipPath id="clip0_23_23022">
<rect width="60" height="60" fill="white" transform="translate(0.128906)"/>
</clipPath>
</defs>
</svg>
