<svg width="16" height="17" viewBox="0 0 16 17" fill="none" xmlns="http://www.w3.org/2000/svg">
<path id="Vector" d="M9.62536 0C9.7495 3.9119e-06 9.87043 0.0394071 9.97075 0.112535C10.0711 0.185663 10.1456 0.288741 10.1836 0.406926L10.8285 2.41106C11.0994 2.54358 11.3586 2.69251 11.606 2.86021L13.6653 2.41693C13.7867 2.391 13.9132 2.40429 14.0266 2.45487C14.14 2.50545 14.2344 2.59071 14.2962 2.69837L15.9216 5.51167C15.9836 5.61927 16.0099 5.74381 15.9966 5.86731C15.9834 5.99082 15.9312 6.10692 15.8477 6.19887L14.4346 7.75856C14.4552 8.05763 14.4552 8.35777 14.4346 8.65684L15.8477 10.2189C15.9312 10.3108 15.9834 10.4269 15.9966 10.5504C16.0099 10.6739 15.9836 10.7985 15.9216 10.9061L14.2962 13.7205C14.2342 13.828 14.1397 13.913 14.0264 13.9634C13.913 14.0137 13.7866 14.0268 13.6653 14.0008L11.606 13.5575C11.3598 13.7241 11.0994 13.8742 10.8297 14.0067L10.1836 16.0108C10.1456 16.129 10.0711 16.2321 9.97075 16.3052C9.87043 16.3783 9.7495 16.4177 9.62536 16.4177H6.37464C6.2505 16.4177 6.12957 16.3783 6.02926 16.3052C5.92894 16.2321 5.85443 16.129 5.81644 16.0108L5.17263 14.0079C4.90246 13.8757 4.64188 13.7249 4.39279 13.5564L2.3347 14.0008C2.21329 14.0267 2.08678 14.0135 1.9734 13.9629C1.86002 13.9123 1.76562 13.827 1.70379 13.7194L0.0784365 10.9061C0.016371 10.7985 -0.00991803 10.6739 0.00336006 10.5504C0.0166382 10.4269 0.0687972 10.3108 0.152316 10.2189L1.56542 8.65684C1.54495 8.35855 1.54495 8.0592 1.56542 7.7609L0.152316 6.19887C0.0687972 6.10692 0.0166382 5.99082 0.00336006 5.86731C-0.00991803 5.74381 0.016371 5.61927 0.0784365 5.51167L1.70379 2.6972C1.76579 2.58975 1.86026 2.50473 1.97363 2.45437C2.087 2.40401 2.21341 2.3909 2.3347 2.41693L4.39279 2.86138C4.6414 2.69368 4.90174 2.54241 5.17263 2.40989L5.81761 0.406926C5.85548 0.289122 5.92964 0.186316 6.02948 0.113224C6.12932 0.0401313 6.24973 0.000499179 6.37347 0H9.62419H9.62536ZM9.19615 1.1727H6.80385L6.13776 3.24485L5.68862 3.46414C5.46782 3.57219 5.25467 3.69522 5.05067 3.83237L4.63553 4.11382L2.50592 3.65412L1.30977 5.72745L2.76977 7.34342L2.73459 7.84065C2.71774 8.08584 2.71774 8.33191 2.73459 8.5771L2.76977 9.07432L1.30742 10.6903L2.50475 12.7636L4.63436 12.3051L5.0495 12.5854C5.2535 12.7225 5.46664 12.8456 5.68744 12.9536L6.13659 13.1729L6.80385 15.2451H9.1985L9.86693 13.1717L10.3149 12.9536C10.5355 12.8458 10.7482 12.7228 10.9517 12.5854L11.3656 12.3051L13.4964 12.7636L14.6926 10.6903L13.2314 9.07432L13.2666 8.5771C13.2835 8.33152 13.2835 8.08506 13.2666 7.83947L13.2314 7.34225L14.6938 5.72745L13.4964 3.65412L11.3656 4.11147L10.9517 3.83237C10.7483 3.69495 10.5355 3.57191 10.3149 3.46414L9.86693 3.24602L9.19732 1.1727H9.19615ZM8 4.69078C8.93306 4.69078 9.8279 5.06144 10.4877 5.72121C11.1474 6.38098 11.5181 7.27582 11.5181 8.20887C11.5181 9.14193 11.1474 10.0368 10.4877 10.6965C9.8279 11.3563 8.93306 11.727 8 11.727C7.06695 11.727 6.17211 11.3563 5.51234 10.6965C4.85257 10.0368 4.48191 9.14193 4.48191 8.20887C4.48191 7.27582 4.85257 6.38098 5.51234 5.72121C6.17211 5.06144 7.06695 4.69078 8 4.69078ZM8 5.86348C7.37796 5.86348 6.7814 6.11058 6.34156 6.55043C5.90171 6.99028 5.65461 7.58684 5.65461 8.20887C5.65461 8.83091 5.90171 9.42747 6.34156 9.86732C6.7814 10.3072 7.37796 10.5543 8 10.5543C8.62204 10.5543 9.2186 10.3072 9.65844 9.86732C10.0983 9.42747 10.3454 8.83091 10.3454 8.20887C10.3454 7.58684 10.0983 6.99028 9.65844 6.55043C9.2186 6.11058 8.62204 5.86348 8 5.86348Z" fill="black"/>
</svg>
