<svg width="22" height="22" viewBox="0 0 22 22" fill="none" xmlns="http://www.w3.org/2000/svg">
<g id="Group 34220">
<path id="Vector" d="M15.9102 5.03125C17.9102 6.42124 19.2902 8.63124 19.5702 11.1813" stroke="white" stroke-width="1.5" stroke-linecap="round" stroke-linejoin="round"/>
<path id="Vector_2" d="M2.43945 11.2282C2.69945 8.68813 4.05945 6.47812 6.03945 5.07812" stroke="white" stroke-width="1.5" stroke-linecap="round" stroke-linejoin="round"/>
<path id="Vector_3" d="M7.13867 19.8008C8.29867 20.3908 9.61872 20.7208 11.0087 20.7208C12.3487 20.7208 13.6087 20.4208 14.7387 19.8708" stroke="white" stroke-width="1.5" stroke-linecap="round" stroke-linejoin="round"/>
<path id="Vector_4" d="M8.22852 3.78C8.22852 5.31 9.46852 6.56 11.0085 6.56C12.5485 6.56 13.7885 5.32 13.7885 3.78C13.7885 2.24001 12.5485 1 11.0085 1" stroke="white" stroke-width="1.5" stroke-linecap="round" stroke-linejoin="round"/>
<path id="Vector_5" d="M3.78 18.7787C5.31535 18.7787 6.56 17.5341 6.56 15.9988C6.56 14.4634 5.31535 13.2188 3.78 13.2188C2.24465 13.2188 1 14.4634 1 15.9988C1 17.5341 2.24465 18.7787 3.78 18.7787Z" stroke="white" stroke-width="1.5" stroke-linecap="round" stroke-linejoin="round"/>
<path id="Vector_6" d="M20.8901 15.9988C20.8901 14.4688 19.6501 13.2188 18.1101 13.2188C16.5701 13.2188 15.3301 14.4588 15.3301 15.9988C15.3301 17.5388 16.5701 18.7787 18.1101 18.7787" stroke="white" stroke-width="1.5" stroke-linecap="round" stroke-linejoin="round"/>
</g>
</svg>
