<svg width="14" height="14" viewBox="0 0 14 14" fill="none" xmlns="http://www.w3.org/2000/svg">
<g id="essetional/share" clip-path="url(#clip0_50_23716)">
<path id="Vector" d="M9.89404 3.60034C11.0607 4.41117 11.8657 5.70034 12.029 7.18785" stroke="#179CFD" stroke-width="1.5" stroke-linecap="round" stroke-linejoin="round"/>
<path id="Vector_2" d="M2.03613 7.21522C2.1878 5.73352 2.98113 4.44435 4.13613 3.62769" stroke="#179CFD" stroke-width="1.5" stroke-linecap="round" stroke-linejoin="round"/>
<path id="Vector_3" d="M4.77734 12.2158C5.45401 12.56 6.22404 12.7525 7.03487 12.7525C7.81654 12.7525 8.55154 12.5775 9.21071 12.2567" stroke="#179CFD" stroke-width="1.5" stroke-linecap="round" stroke-linejoin="round"/>
<path id="Vector_4" d="M5.41309 2.87045C5.41309 3.76295 6.13642 4.49211 7.03475 4.49211C7.93309 4.49211 8.65642 3.76878 8.65642 2.87045C8.65642 1.97212 7.93309 1.24878 7.03475 1.24878" stroke="#179CFD" stroke-width="1.5" stroke-linecap="round" stroke-linejoin="round"/>
<path id="Vector_5" d="M2.81796 11.6196C3.71358 11.6196 4.43962 10.8935 4.43962 9.99789C4.43962 9.10224 3.71358 8.37622 2.81796 8.37622C1.92233 8.37622 1.19629 9.10224 1.19629 9.99789C1.19629 10.8935 1.92233 11.6196 2.81796 11.6196Z" stroke="#179CFD" stroke-width="1.5" stroke-linecap="round" stroke-linejoin="round"/>
<path id="Vector_6" d="M12.799 9.99789C12.799 9.10539 12.0757 8.37622 11.1773 8.37622C10.279 8.37622 9.55566 9.09955 9.55566 9.99789C9.55566 10.8962 10.279 11.6196 11.1773 11.6196" stroke="#179CFD" stroke-width="1.5" stroke-linecap="round" stroke-linejoin="round"/>
</g>
<defs>
<clipPath id="clip0_50_23716">
<rect width="14" height="14" fill="white"/>
</clipPath>
</defs>
</svg>
