<svg width="119" height="87" viewBox="0 0 119 87" fill="none" xmlns="http://www.w3.org/2000/svg">
<g id="Group 34417">
<path id="Vector" d="M68.3451 79.6776L39.3165 3.40311C38.9361 2.40349 38.2552 1.54206 37.3648 0.933946C36.4743 0.325831 35.4167 0 34.3332 0C33.2498 0 32.1921 0.325831 31.3017 0.933946C30.4112 1.54206 29.7303 2.40349 29.35 3.40311L0.321354 79.6776C-0.158761 80.9765 -0.0989571 82.4096 0.487757 83.6653C1.07447 84.9209 2.14063 85.8975 3.45433 86.3826C4.76802 86.8677 6.22297 86.8221 7.50269 86.2556C8.78241 85.6892 9.78337 84.6478 10.2878 83.3579L19.0351 60.3754C19.0696 60.2846 19.1314 60.2062 19.2122 60.1508C19.293 60.0955 19.3891 60.0657 19.4875 60.0656H49.1789C49.2774 60.0657 49.3734 60.0955 49.4542 60.1508C49.5351 60.2062 49.5968 60.2846 49.6313 60.3754L58.3786 83.3579C58.8831 84.6478 59.884 85.6892 61.1637 86.2556C62.4435 86.8221 63.8984 86.8677 65.2121 86.3826C66.5258 85.8975 67.5919 84.9209 68.1787 83.6653C68.7654 82.4096 68.8252 80.9765 68.3451 79.6776ZM23.3894 48.9295L33.8809 21.3634C33.9157 21.2729 33.9776 21.1951 34.0584 21.1401C34.1392 21.0852 34.235 21.0557 34.3332 21.0557C34.4314 21.0557 34.5272 21.0852 34.608 21.1401C34.6888 21.1951 34.7508 21.2729 34.7856 21.3634L45.277 48.9342C45.3043 49.0063 45.3135 49.0838 45.3039 49.1601C45.2942 49.2364 45.266 49.3093 45.2215 49.3725C45.1771 49.4357 45.1178 49.4874 45.0487 49.5232C44.9796 49.5589 44.9027 49.5777 44.8246 49.5778H23.8418C23.7637 49.5777 23.6869 49.5589 23.6178 49.5232C23.5486 49.4874 23.4893 49.4357 23.4449 49.3725C23.4005 49.3093 23.3722 49.2364 23.3625 49.1601C23.3529 49.0838 23.3621 49.0063 23.3894 48.9342V48.9295ZM94.5119 22.8817C84.4197 22.8102 75.3821 28.5713 71.531 37.5169C70.9792 38.797 70.9662 40.2407 71.4947 41.5303C72.0232 42.8199 73.05 43.8499 74.3492 44.3935C75.6483 44.9372 77.1135 44.95 78.4223 44.4293C79.7311 43.9085 80.7764 42.8968 81.3281 41.6167C83.4762 36.6374 88.5296 33.4076 94.2265 33.3695C102.045 33.317 108.356 39.686 108.356 47.3968C108.356 47.4896 108.32 47.5788 108.254 47.6455C108.189 47.7122 108.1 47.7513 108.005 47.7544C102.703 47.8998 96.4133 48.2478 90.8011 48.8985C77.5568 50.4335 69.6514 57.5485 69.6514 67.9314C69.6514 73.4589 71.7705 78.4191 75.6192 81.9182C79.2308 85.1956 84.1657 87 89.4876 87C96.9866 87 103.443 85.0931 108.342 81.4653H108.356C108.353 82.154 108.488 82.8364 108.752 83.4738C109.017 84.1112 109.407 84.6909 109.899 85.1799C110.391 85.669 110.976 86.0577 111.62 86.324C112.265 86.5903 112.956 86.7289 113.655 86.7318C114.354 86.7348 115.047 86.6021 115.693 86.3413C116.34 86.0806 116.929 85.6968 117.425 85.212C117.921 84.7271 118.316 84.1507 118.586 83.5156C118.856 82.8806 118.997 82.1992 119 81.5106V47.4254C119 34.0345 108.114 22.9794 94.5119 22.8817ZM89.4876 76.5123C85.247 76.5123 80.2952 74.2645 80.2952 67.9314C80.2952 65.3881 81.2217 63.6076 83.3021 62.156C85.3268 60.7425 88.4305 59.7342 92.0445 59.3147C97.1536 58.7212 102.887 58.3947 107.802 58.2493C107.868 58.2492 107.933 58.2623 107.993 58.2877C108.053 58.3131 108.108 58.3504 108.153 58.3972C108.198 58.444 108.234 58.4994 108.256 58.5601C108.279 58.6207 108.289 58.6852 108.286 58.7498C107.63 70.6963 101.452 76.5123 89.4876 76.5123Z" fill="#179CFD"/>
</g>
</svg>
