<svg width="92" height="92" viewBox="0 0 92 92" fill="none" xmlns="http://www.w3.org/2000/svg">
<g id="Group 34179">
<path id="Vector" d="M20.1997 37.4V28.8C20.1997 14.567 24.4997 3 45.9997 3C65.3497 3 71.7997 11.6 71.7997 24.5" stroke="#179CFD" stroke-width="6" stroke-linecap="round" stroke-linejoin="round"/>
<path id="Vector_2" d="M67.5 89.0001H24.5C7.3 89.0001 3 84.7001 3 67.5001V58.9001C3 41.7001 7.3 37.4001 24.5 37.4001H67.5C84.7 37.4001 89 41.7001 89 58.9001V67.5001C89 84.7001 84.7 89.0001 67.5 89.0001Z" stroke="#179CFD" stroke-width="6" stroke-linecap="round" stroke-linejoin="round"/>
<path id="Vector_3" d="M45.4624 75.8953C52.8837 75.8953 58.8999 70.1655 58.8999 63.0977C58.8999 56.0298 52.8837 50.3 45.4624 50.3C38.0411 50.3 32.0249 56.0298 32.0249 63.0977C32.0249 70.1655 38.0411 75.8953 45.4624 75.8953Z" stroke="#179CFD" stroke-width="6" stroke-linecap="round" stroke-linejoin="round"/>
</g>
</svg>
