<svg width="75" height="75" viewBox="0 0 75 75" fill="none" xmlns="http://www.w3.org/2000/svg">
<g id="Group 34397">
<path id="Vector" d="M44.4766 69.7674H30.5232V75H44.4766V69.7674ZM5.23255 44.4768V30.5234H4.4155e-06V44.4768H5.23255ZM69.7672 42.9524V44.4768H74.9998V42.9524H69.7672ZM47.5847 11.7246L61.3952 24.1536L64.894 20.2606L51.0871 7.83157L47.5847 11.7246ZM74.9998 42.9524C74.9998 37.0606 75.0521 33.328 73.5695 29.9931L68.787 32.1245C69.7149 34.2106 69.7672 36.6001 69.7672 42.9524H74.9998ZM61.3952 24.1536C66.1149 28.4024 67.8591 30.042 68.787 32.1245L73.5695 29.9931C72.0835 26.6548 69.2754 24.2025 64.894 20.2606L61.3952 24.1536ZM30.6278 5.23274C36.1464 5.23274 38.229 5.2746 40.0813 5.98623L41.958 1.10252C38.9859 -0.0416658 35.7487 0.0001946 30.6278 0.0001946V5.23274ZM51.0871 7.83506C47.2987 4.42693 44.9301 2.23972 41.958 1.10252L40.0848 5.98623C41.9406 6.69785 43.5034 8.05134 47.5847 11.7246L51.0871 7.83506ZM30.5232 69.7674C23.8709 69.7674 19.1476 69.7605 15.5581 69.2791C12.0523 68.8082 10.029 67.9221 8.55347 66.4465L4.8558 70.1442C7.4651 72.7605 10.7756 73.9151 14.8639 74.4663C18.8755 75.007 24.0209 75 30.5232 75V69.7674ZM4.4155e-06 44.4768C4.4155e-06 50.9791 -0.00697232 56.121 0.533724 60.1361C1.08488 64.2244 2.24302 67.5349 4.85232 70.1477L8.54998 66.45C7.07789 64.9709 6.19185 62.9477 5.72092 59.4384C5.23952 55.8559 5.23255 51.1291 5.23255 44.4768H4.4155e-06ZM44.4766 75C50.9789 75 56.1208 75.007 60.1359 74.4663C64.2242 73.9151 67.5347 72.757 70.1475 70.1477L66.4498 66.45C64.9707 67.9221 62.9475 68.8082 59.4382 69.2791C55.8556 69.7605 51.1289 69.7674 44.4766 69.7674V75ZM69.7672 44.4768C69.7672 51.1291 69.7603 55.8559 69.2789 59.4419C68.8079 62.9477 67.9219 64.9709 66.4463 66.4465L70.144 70.1442C72.7602 67.5349 73.9149 64.2244 74.4661 60.1361C75.0068 56.1245 74.9998 50.9791 74.9998 44.4768H69.7672ZM5.23255 30.5234C5.23255 23.8711 5.23952 19.1478 5.72092 15.5583C6.19185 12.0525 7.07789 10.0292 8.55347 8.55366L4.8558 4.856C2.23953 7.46529 1.08488 10.7757 0.533724 14.8641C-0.00697232 18.8757 4.4155e-06 24.0211 4.4155e-06 30.5234H5.23255ZM30.6278 0.0001946C24.0871 0.0001946 18.9209 -0.00678212 14.8918 0.533914C10.786 1.08508 7.4651 2.24321 4.85232 4.85251L8.54998 8.55017C10.029 7.07808 12.0558 6.19204 15.586 5.72111C19.1895 5.23972 23.9406 5.23274 30.6278 5.23274V0.0001946Z" fill="#179CFD"/>
<path id="Vector_2" d="M40.9883 4.36084V13.0817C40.9883 21.3038 40.9883 25.4166 43.5418 27.9701C46.0952 30.5236 50.208 30.5236 58.4301 30.5236H72.3835" stroke="#179CFD" stroke-width="4"/>
<path id="Vector_3" d="M38.3543 52.5926V57.9082C38.3543 58.613 38.0743 59.2891 37.5758 59.7875C37.0774 60.2859 36.4014 60.566 35.6965 60.566H17.0919C16.387 60.566 15.711 60.2859 15.2125 59.7875C14.7141 59.2891 14.4341 58.613 14.4341 57.9082V52.5926M33.0387 43.2903L26.3942 36.6458M26.3942 36.6458L19.7497 43.2903M26.3942 36.6458V52.5926" stroke="#179CFD" stroke-width="4" stroke-linecap="round" stroke-linejoin="round"/>
</g>
</svg>
